<svg width="35" height="35" viewBox="0 0 35 35" fill="none" xmlns="http://www.w3.org/2000/svg">
<rect x="2.229" y="2.18457" width="30.586" height="30.586" rx="15.293" fill="url(#paint0_radial_2134_2326)"/>
<rect x="2.229" y="2.18457" width="30.586" height="30.586" rx="15.293" fill="url(#paint1_radial_2134_2326)"/>
<rect x="2.229" y="2.18457" width="30.586" height="30.586" rx="15.293" fill="url(#paint2_radial_2134_2326)"/>
<path d="M25.1687 11.4698C25.1687 12.3747 24.4351 13.1083 23.5302 13.1083C22.6252 13.1083 21.8916 12.3747 21.8916 11.4698C21.8916 10.5649 22.6252 9.83127 23.5302 9.83127C24.4351 9.83127 25.1687 10.5649 25.1687 11.4698Z" fill="white"/>
<path fill-rule="evenodd" clip-rule="evenodd" d="M17.5222 22.9396C20.5387 22.9396 22.984 20.4942 22.984 17.4778C22.984 14.4613 20.5387 12.016 17.5222 12.016C14.5057 12.016 12.0604 14.4613 12.0604 17.4778C12.0604 20.4942 14.5057 22.9396 17.5222 22.9396ZM17.5222 20.7548C19.3321 20.7548 20.7993 19.2877 20.7993 17.4778C20.7993 15.6679 19.3321 14.2007 17.5222 14.2007C15.7123 14.2007 14.2451 15.6679 14.2451 17.4778C14.2451 19.2877 15.7123 20.7548 17.5222 20.7548Z" fill="white"/>
<path fill-rule="evenodd" clip-rule="evenodd" d="M6.59863 17.0408C6.59863 13.3702 6.59863 11.5348 7.31299 10.1328C7.94136 8.89958 8.94402 7.89693 10.1773 7.26856C11.5793 6.5542 13.4146 6.5542 17.0853 6.5542H17.9591C21.6298 6.5542 23.4651 6.5542 24.8672 7.26856C26.1004 7.89693 27.1031 8.89958 27.7314 10.1328C28.4458 11.5348 28.4458 13.3702 28.4458 17.0408V17.9147C28.4458 21.5854 28.4458 23.4207 27.7314 24.8227C27.1031 26.056 26.1004 27.0586 24.8672 27.687C23.4651 28.4013 21.6298 28.4013 17.9591 28.4013H17.0853C13.4146 28.4013 11.5793 28.4013 10.1773 27.687C8.94402 27.0586 7.94136 26.056 7.31299 24.8227C6.59863 23.4207 6.59863 21.5854 6.59863 17.9147V17.0408ZM17.0853 8.73891H17.9591C19.8305 8.73891 21.1027 8.74061 22.086 8.82095C23.0438 8.89921 23.5336 9.04105 23.8753 9.21515C24.6975 9.63407 25.3659 10.3025 25.7848 11.1247C25.9589 11.4664 26.1008 11.9562 26.179 12.914C26.2594 13.8973 26.2611 15.1694 26.2611 17.0408V17.9147C26.2611 19.7861 26.2594 21.0582 26.179 22.0416C26.1008 22.9994 25.9589 23.4892 25.7848 23.8309C25.3659 24.653 24.6975 25.3215 23.8753 25.7404C23.5336 25.9145 23.0438 26.0563 22.086 26.1346C21.1027 26.2149 19.8305 26.2166 17.9591 26.2166H17.0853C15.2139 26.2166 13.9417 26.2149 12.9584 26.1346C12.0006 26.0563 11.5108 25.9145 11.1691 25.7404C10.3469 25.3215 9.6785 24.653 9.25959 23.8309C9.08549 23.4892 8.94364 22.9994 8.86539 22.0416C8.78505 21.0582 8.78335 19.7861 8.78335 17.9147V17.0408C8.78335 15.1694 8.78505 13.8973 8.86539 12.914C8.94364 11.9562 9.08549 11.4664 9.25959 11.1247C9.6785 10.3025 10.3469 9.63407 11.1691 9.21515C11.5108 9.04105 12.0006 8.89921 12.9584 8.82095C13.9417 8.74061 15.2139 8.73891 17.0853 8.73891Z" fill="white"/>
<defs>
<radialGradient id="paint0_radial_2134_2326" cx="0" cy="0" r="1" gradientUnits="userSpaceOnUse" gradientTransform="translate(13.1526 25.1241) rotate(-55.3758) scale(27.8765)">
<stop stop-color="#B13589"/>
<stop offset="0.79309" stop-color="#C62F94"/>
<stop offset="1" stop-color="#8A3AC8"/>
</radialGradient>
<radialGradient id="paint1_radial_2134_2326" cx="0" cy="0" r="1" gradientUnits="userSpaceOnUse" gradientTransform="translate(12.0602 33.8629) rotate(-65.1363) scale(24.681)">
<stop stop-color="#E0E8B7"/>
<stop offset="0.444662" stop-color="#FB8A2E"/>
<stop offset="0.71474" stop-color="#E2425C"/>
<stop offset="1" stop-color="#E2425C" stop-opacity="0"/>
</radialGradient>
<radialGradient id="paint2_radial_2134_2326" cx="0" cy="0" r="1" gradientUnits="userSpaceOnUse" gradientTransform="translate(0.59047 3.27693) rotate(-8.1301) scale(42.4827 9.08662)">
<stop offset="0.156701" stop-color="#406ADC"/>
<stop offset="0.467799" stop-color="#6A45BE"/>
<stop offset="1" stop-color="#6A45BE" stop-opacity="0"/>
</radialGradient>
</defs>
</svg>
