<svg width="71" height="84" viewBox="0 0 71 84" fill="none" xmlns="http://www.w3.org/2000/svg">
<path d="M25.5404 45.656C31.8472 46.4967 38.4009 46.311 44.5556 45.1171C50.7104 43.9233 56.2537 41.7626 60.6392 38.848C65.0248 35.9333 68.1012 32.3653 69.5653 28.4956C71.0294 24.6259 70.8307 20.5881 68.9886 16.7802C67.1466 12.9722 63.7249 9.52545 59.0607 6.77969C54.3965 4.03393 48.6509 2.0839 42.39 1.1218C36.1292 0.159691 22.5711 0.0472111 16.3586 1.12154C15.8143 2.02897 16.6583 0.621602 16.3586 1.12154L14.6082 10.2913C14.6082 10.2913 13.4183 10.2802 17.4225 9.58772C21.4267 8.89526 35.1583 8.38776 39.1937 9.00788C43.2291 9.628 46.9324 10.8849 49.9386 12.6546C52.9449 14.4244 55.1503 16.6459 56.3376 19.1003C57.5249 21.5548 57.653 24.1573 56.7093 26.6515C55.7656 29.1456 53.7827 31.4454 50.956 33.324C48.1294 35.2026 44.5565 36.5952 40.5895 37.3647C36.6225 38.1342 32.3984 38.2539 28.3334 37.712L25.5404 45.656Z" fill="#FFF3D3"/>
<path d="M25.4544 45.6964L35.3041 41.4742L49.0747 79.9451L37.4603 79.9316L25.4544 45.6964Z" fill="#FFF3D3"/>
<path d="M43.0957 42.6523L53.5332 38.4353L69.8315 79.9459L58.3177 79.9793L43.0957 42.6523Z" fill="#FFF3D3"/>
<path d="M23.3465 22.2168L12.6212 20.0503L0.879395 79.9447L12.1367 79.9447L23.3465 22.2168Z" fill="#EBFFFF"/>
<path d="M14.2456 30.5179L14.2456 18.7319L44.4993 19.1039V30.6926L14.2456 30.5179Z" fill="#EBFFFF"/>
<path d="M50.1301 25.0649C50.1301 28.1734 48.3872 30.6935 44.5015 30.6935C40.6158 30.6935 36.0586 28.1734 36.0586 25.0649C36.0586 21.9563 39.9122 19.0845 43.7979 19.0845C47.6837 19.0845 50.1301 21.9563 50.1301 25.0649Z" fill="#EBFFFF"/>
<path d="M18.036 23.8645C19.0575 22.7492 19.2704 21.2815 17.8988 20.0252C16.5272 18.7689 14.0904 18.1997 13.0688 19.315C12.0473 20.4303 12.4638 22.7066 13.8354 23.9629C15.2071 25.2193 17.0144 24.9799 18.036 23.8645Z" fill="#EBFFFF"/>
</svg>
