<svg width="28" height="34" viewBox="0 0 28 34" fill="none" xmlns="http://www.w3.org/2000/svg">
<path d="M9.95454 18.5081C12.4644 18.8426 15.0726 18.7687 17.522 18.2936C19.9714 17.8185 22.1774 16.9586 23.9227 15.7987C25.6681 14.6388 26.8924 13.2188 27.475 11.6788C28.0577 10.1388 27.9786 8.53189 27.2455 7.01643C26.5125 5.50098 25.1507 4.12929 23.2945 3.03657C21.4383 1.94385 19.1518 1.1678 16.6601 0.78491C14.1685 0.402022 8.77286 0.357259 6.30047 0.784809C6.08385 1.14594 6.41977 0.585848 6.30047 0.784809L5.6039 4.43407C5.6039 4.43407 5.13033 4.42965 6.72388 4.15407C8.31744 3.8785 13.7822 3.67653 15.3881 3.92332C16.9941 4.1701 18.4679 4.6703 19.6642 5.37461C20.8606 6.07891 21.7383 6.96302 22.2108 7.93979C22.6833 8.91657 22.7343 9.95229 22.3588 10.9449C21.9832 11.9375 21.1941 12.8527 20.0691 13.6003C18.9442 14.348 17.5223 14.9022 15.9436 15.2084C14.3649 15.5146 12.6838 15.5623 11.0661 15.3466L9.95454 18.5081Z" fill="#FF7800"/>
<path d="M9.91901 18.5237L13.8389 16.8434L19.3191 32.1536L14.697 32.1482L9.91901 18.5237Z" fill="#FF7800"/>
<path d="M16.9414 17.3119L21.0952 15.6336L27.5814 32.1535L22.9993 32.1668L16.9414 17.3119Z" fill="#FF7800"/>
<path d="M9.08078 9.18154L4.81246 8.31932L0.139608 32.1554L4.61964 32.1554L9.08078 9.18154Z" fill="#0362F2"/>
<path d="M5.46191 12.4853L5.46191 7.7948L17.5019 7.94284V12.5548L5.46191 12.4853Z" fill="#0362F2"/>
<path d="M19.7411 10.3148C19.7411 11.5519 19.0475 12.5548 17.5011 12.5548C15.9547 12.5548 14.1411 11.5519 14.1411 10.3148C14.1411 9.07768 15.6747 7.9348 17.2211 7.9348C18.7675 7.9348 19.7411 9.07768 19.7411 10.3148Z" fill="#0362F2"/>
<path d="M6.96885 9.83747C7.3754 9.3936 7.46014 8.80953 6.91427 8.30955C6.3684 7.80958 5.39864 7.58303 4.99209 8.0269C4.58554 8.47077 4.75131 9.37666 5.29718 9.87663C5.84304 10.3766 6.5623 10.2813 6.96885 9.83747Z" fill="#0362F2"/>
</svg>
