<svg width="35" height="35" viewBox="0 0 35 35" fill="none" xmlns="http://www.w3.org/2000/svg">
<path fill-rule="evenodd" clip-rule="evenodd" d="M19.4639 32.2921C27.91 32.2921 34.7569 25.4451 34.7569 16.9991C34.7569 8.55297 27.91 1.70605 19.4639 1.70605C11.0178 1.70605 4.1709 8.55297 4.1709 16.9991C4.1709 19.7418 4.89294 22.316 6.15732 24.5417L4.1709 32.2921L12.1613 30.4392C14.3313 31.6207 16.8192 32.2921 19.4639 32.2921ZM19.4639 29.9393C26.6106 29.9393 32.4041 24.1458 32.4041 16.9991C32.4041 9.85236 26.6106 4.05882 19.4639 4.05882C12.3172 4.05882 6.52367 9.85236 6.52367 16.9991C6.52367 19.7584 7.38735 22.3161 8.85912 24.4164L7.70005 28.7629L12.1232 27.6571C14.209 29.0964 16.738 29.9393 19.4639 29.9393Z" fill="#BFC8D0"/>
<path d="M32.572 15.9066C32.572 23.1461 26.7033 29.0149 19.4638 29.0149C16.7025 29.0149 14.1406 28.1611 12.0277 26.7031L7.54713 27.8233L8.72125 23.4203C7.23036 21.2927 6.35547 18.7018 6.35547 15.9066C6.35547 8.66712 12.2242 2.79834 19.4638 2.79834C26.7033 2.79834 32.572 8.66712 32.572 15.9066Z" fill="url(#paint0_linear_2134_2325)"/>
<path fill-rule="evenodd" clip-rule="evenodd" d="M19.4639 31.1998C27.91 31.1998 34.7569 24.3529 34.7569 15.9068C34.7569 7.46068 27.91 0.61377 19.4639 0.61377C11.0178 0.61377 4.1709 7.46068 4.1709 15.9068C4.1709 18.6495 4.89294 21.2237 6.15732 23.4495L4.1709 31.1998L12.1613 29.3469C14.3313 30.5285 16.8192 31.1998 19.4639 31.1998ZM19.4639 28.847C26.6106 28.847 32.4041 23.0535 32.4041 15.9068C32.4041 8.76008 26.6106 2.96654 19.4639 2.96654C12.3172 2.96654 6.52367 8.76008 6.52367 15.9068C6.52367 18.6661 7.38735 21.2238 8.85912 23.3241L7.70005 27.6706L12.1232 26.5648C14.209 28.0042 16.738 28.847 19.4639 28.847Z" fill="white"/>
<path d="M15.6408 8.80629C15.2772 8.07597 14.7194 8.14062 14.1559 8.14062C13.1489 8.14062 11.5786 9.34689 11.5786 11.5919C11.5786 13.4318 12.3894 15.4458 15.1213 18.4586C17.7578 21.3662 21.2221 22.8703 24.0981 22.8191C26.974 22.7679 27.5657 20.293 27.5657 19.4572C27.5657 19.0868 27.3359 18.902 27.1775 18.8518C26.1974 18.3814 24.3899 17.505 23.9786 17.3404C23.5673 17.1757 23.3526 17.3984 23.2191 17.5196C22.8461 17.875 22.1068 18.9225 21.8536 19.1581C21.6005 19.3937 21.2231 19.2745 21.066 19.1854C20.4881 18.9535 18.9211 18.2565 17.672 17.0457C16.1273 15.5482 16.0366 15.033 15.7456 14.5744C15.5127 14.2075 15.6836 13.9824 15.7689 13.884C16.1017 13.5 16.5612 12.9071 16.7673 12.6125C16.9734 12.3178 16.8098 11.8705 16.7116 11.5919C16.2894 10.3936 15.9317 9.39055 15.6408 8.80629Z" fill="white"/>
<defs>
<linearGradient id="paint0_linear_2134_2325" x1="30.9335" y1="6.07541" x2="6.35547" y2="29.0149" gradientUnits="userSpaceOnUse">
<stop stop-color="#5BD066"/>
<stop offset="1" stop-color="#27B43E"/>
</linearGradient>
</defs>
</svg>
