<svg width="1177" height="160" viewBox="0 0 1177 160" fill="none" xmlns="http://www.w3.org/2000/svg">
<g clip-path="url(#clip0_18_11277)">
<rect width="1177" height="160" fill="#EFF2FF"/>
<rect width="4.98493" height="23.4675" transform="translate(764.044 69.204)" fill="#FF7900"/>
<rect width="10.43" height="5.21501" transform="translate(758.061 69.2039)" fill="#FF7900"/>
<rect width="5.21501" height="5.21501" transform="translate(769.795 69.2039)" fill="#FF7900"/>
<path fill-rule="evenodd" clip-rule="evenodd" d="M769.042 100.265C780.799 100.265 790.329 90.7374 790.329 78.9847C790.329 67.2319 780.799 57.7045 769.042 57.7045C758.332 57.7045 749.468 65.6122 747.976 75.9061C750.034 67.4321 757.673 61.1398 766.783 61.1398C777.471 61.1398 786.135 69.8011 786.135 80.4854C786.135 91.1697 777.471 99.831 766.783 99.831C765.726 99.831 764.688 99.7463 763.677 99.5832C765.391 100.028 767.189 100.265 769.042 100.265Z" fill="#FF7900"/>
<path fill-rule="evenodd" clip-rule="evenodd" d="M777.643 103.752C764.673 109.873 749.195 104.324 743.073 91.3586C736.95 78.3927 742.5 62.9199 755.47 56.799C765.856 51.8978 777.85 54.4791 785.361 62.3593C778.516 55.4505 767.801 53.2422 758.504 57.6297C746.713 63.1942 741.667 77.2604 747.233 89.0475C752.799 100.835 766.87 105.879 778.661 100.315C789.879 95.0207 794.991 82.0317 790.669 70.6311C795.746 83.2827 790.137 97.8563 777.643 103.752Z" fill="#001E9A"/>
<path d="M825.067 60.5818V64.7084H819.464V81.7269H814.314V64.7084H808.711V60.5818H825.067ZM843.496 73.052C843.496 73.534 843.466 74.036 843.405 74.5581H831.749C831.829 75.6023 832.16 76.4055 832.743 76.9678C833.345 77.51 834.078 77.781 834.941 77.781C836.227 77.781 837.12 77.2389 837.622 76.1545H843.104C842.823 77.2589 842.311 78.2529 841.568 79.1365C840.845 80.0201 839.931 80.7128 838.827 81.2149C837.723 81.7169 836.488 81.9679 835.122 81.9679C833.475 81.9679 832.01 81.6165 830.724 80.9137C829.439 80.2108 828.435 79.2068 827.712 77.9015C826.989 76.5963 826.628 75.0701 826.628 73.3231C826.628 71.5761 826.979 70.0499 827.682 68.7447C828.405 67.4394 829.409 66.4354 830.694 65.7326C831.979 65.0297 833.455 64.6783 835.122 64.6783C836.749 64.6783 838.194 65.0197 839.46 65.7024C840.725 66.3852 841.709 67.3591 842.411 68.6242C843.134 69.8893 843.496 71.3652 843.496 73.052ZM838.225 71.6966C838.225 70.813 837.923 70.1102 837.321 69.5881C836.719 69.066 835.965 68.8049 835.062 68.8049C834.198 68.8049 833.465 69.0559 832.863 69.558C832.281 70.06 831.919 70.7728 831.779 71.6966H838.225ZM845.189 73.3231C845.189 71.5761 845.54 70.0499 846.243 68.7447C846.966 67.4394 847.96 66.4354 849.225 65.7326C850.51 65.0297 851.976 64.6783 853.623 64.6783C855.731 64.6783 857.488 65.2305 858.894 66.335C860.32 67.4394 861.254 68.9957 861.695 71.0038H856.213C855.751 69.7186 854.858 69.076 853.532 69.076C852.589 69.076 851.836 69.4475 851.273 70.1905C850.711 70.9134 850.43 71.9576 850.43 73.3231C850.43 74.6886 850.711 75.7428 851.273 76.4858C851.836 77.2087 852.589 77.5702 853.532 77.5702C854.858 77.5702 855.751 76.9276 856.213 75.6424H861.695C861.254 77.6104 860.32 79.1566 858.894 80.2811C857.468 81.4056 855.711 81.9679 853.623 81.9679C851.976 81.9679 850.51 81.6165 849.225 80.9137C847.96 80.2108 846.966 79.2068 846.243 77.9015C845.54 76.5963 845.189 75.0701 845.189 73.3231ZM874.782 64.7386C876.71 64.7386 878.256 65.3812 879.421 66.6663C880.585 67.9314 881.168 69.6784 881.168 71.9074V81.7269H876.047V72.6002C876.047 71.4757 875.756 70.6022 875.174 69.9797C874.591 69.3572 873.808 69.0459 872.824 69.0459C871.84 69.0459 871.057 69.3572 870.475 69.9797C869.892 70.6022 869.601 71.4757 869.601 72.6002V81.7269H864.45V59.4372H869.601V67.1784C870.123 66.4354 870.836 65.843 871.74 65.4012C872.643 64.9595 873.658 64.7386 874.782 64.7386ZM900.591 73.052C900.591 73.534 900.561 74.036 900.5 74.5581H888.844C888.924 75.6023 889.255 76.4055 889.838 76.9678C890.44 77.51 891.173 77.781 892.036 77.781C893.322 77.781 894.215 77.2389 894.717 76.1545H900.199C899.918 77.2589 899.406 78.2529 898.663 79.1365C897.94 80.0201 897.026 80.7128 895.922 81.2149C894.818 81.7169 893.583 81.9679 892.217 81.9679C890.57 81.9679 889.105 81.6165 887.819 80.9137C886.534 80.2108 885.53 79.2068 884.807 77.9015C884.084 76.5963 883.723 75.0701 883.723 73.3231C883.723 71.5761 884.074 70.0499 884.777 68.7447C885.5 67.4394 886.504 66.4354 887.789 65.7326C889.074 65.0297 890.55 64.6783 892.217 64.6783C893.844 64.6783 895.289 65.0197 896.555 65.7024C897.82 66.3852 898.804 67.3591 899.506 68.6242C900.229 69.8893 900.591 71.3652 900.591 73.052ZM895.32 71.6966C895.32 70.813 895.018 70.1102 894.416 69.5881C893.814 69.066 893.06 68.8049 892.157 68.8049C891.293 68.8049 890.56 69.0559 889.958 69.558C889.376 70.06 889.014 70.7728 888.874 71.6966H895.32ZM919.152 73.052C919.152 73.534 919.122 74.036 919.061 74.5581H907.405C907.485 75.6023 907.816 76.4055 908.399 76.9678C909.001 77.51 909.734 77.781 910.597 77.781C911.883 77.781 912.776 77.2389 913.278 76.1545H918.76C918.479 77.2589 917.967 78.2529 917.224 79.1365C916.501 80.0201 915.587 80.7128 914.483 81.2149C913.379 81.7169 912.144 81.9679 910.778 81.9679C909.131 81.9679 907.666 81.6165 906.38 80.9137C905.095 80.2108 904.091 79.2068 903.368 77.9015C902.645 76.5963 902.284 75.0701 902.284 73.3231C902.284 71.5761 902.635 70.0499 903.338 68.7447C904.061 67.4394 905.065 66.4354 906.35 65.7326C907.635 65.0297 909.111 64.6783 910.778 64.6783C912.405 64.6783 913.85 65.0197 915.116 65.7024C916.381 66.3852 917.365 67.3591 918.067 68.6242C918.79 69.8893 919.152 71.3652 919.152 73.052ZM913.881 71.6966C913.881 70.813 913.579 70.1102 912.977 69.5881C912.375 69.066 911.621 68.8049 910.718 68.8049C909.854 68.8049 909.121 69.0559 908.519 69.558C907.937 70.06 907.575 70.7728 907.435 71.6966H913.881ZM927.02 67.7206C927.622 66.7968 928.375 66.0739 929.279 65.5518C930.183 65.0097 931.187 64.7386 932.291 64.7386V70.1905H930.875C929.59 70.1905 928.626 70.4716 927.984 71.0339C927.341 71.5761 927.02 72.54 927.02 73.9255V81.7269H921.869V64.9193H927.02V67.7206ZM942.404 81.9679C940.757 81.9679 939.271 81.6165 937.946 80.9137C936.641 80.2108 935.606 79.2068 934.843 77.9015C934.1 76.5963 933.729 75.0701 933.729 73.3231C933.729 71.5962 934.11 70.0801 934.873 68.7748C935.636 67.4495 936.681 66.4354 938.006 65.7326C939.331 65.0297 940.817 64.6783 942.464 64.6783C944.111 64.6783 945.597 65.0297 946.922 65.7326C948.247 66.4354 949.291 67.4495 950.055 68.7748C950.818 70.0801 951.199 71.5962 951.199 73.3231C951.199 75.0501 950.808 76.5762 950.024 77.9015C949.261 79.2068 948.207 80.2108 946.862 80.9137C945.536 81.6165 944.05 81.9679 942.404 81.9679ZM942.404 77.51C943.388 77.51 944.221 77.1485 944.904 76.4256C945.607 75.7027 945.958 74.6685 945.958 73.3231C945.958 71.9777 945.617 70.9435 944.934 70.2206C944.271 69.4977 943.448 69.1363 942.464 69.1363C941.46 69.1363 940.627 69.4977 939.964 70.2206C939.301 70.9235 938.97 71.9576 938.97 73.3231C938.97 74.6685 939.291 75.7027 939.934 76.4256C940.596 77.1485 941.42 77.51 942.404 77.51ZM964.263 64.7386C966.191 64.7386 967.737 65.3812 968.902 66.6663C970.067 67.9314 970.649 69.6784 970.649 71.9074V81.7269H965.528V72.6002C965.528 71.4757 965.237 70.6022 964.655 69.9797C964.072 69.3572 963.289 69.0459 962.305 69.0459C961.321 69.0459 960.538 69.3572 959.956 69.9797C959.374 70.6022 959.082 71.4757 959.082 72.6002V81.7269H953.932V59.4372H959.082V67.1784C959.605 66.4354 960.317 65.843 961.221 65.4012C962.125 64.9595 963.139 64.7386 964.263 64.7386ZM993.774 77.9919H985.883L984.617 81.7269H979.226L986.877 60.5818H992.841L1000.49 81.7269H995.039L993.774 77.9919ZM992.449 74.0159L989.828 66.2747L987.238 74.0159H992.449ZM1001.8 73.3231C1001.8 71.5761 1002.15 70.0499 1002.85 68.7447C1003.57 67.4394 1004.57 66.4354 1005.83 65.7326C1007.12 65.0297 1008.58 64.6783 1010.23 64.6783C1012.34 64.6783 1014.1 65.2305 1015.5 66.335C1016.93 67.4394 1017.86 68.9957 1018.3 71.0038H1012.82C1012.36 69.7186 1011.46 69.076 1010.14 69.076C1009.2 69.076 1008.44 69.4475 1007.88 70.1905C1007.32 70.9134 1007.04 71.9576 1007.04 73.3231C1007.04 74.6886 1007.32 75.7428 1007.88 76.4858C1008.44 77.2087 1009.2 77.5702 1010.14 77.5702C1011.46 77.5702 1012.36 76.9276 1012.82 75.6424H1018.3C1017.86 77.6104 1016.93 79.1566 1015.5 80.2811C1014.08 81.4056 1012.32 81.9679 1010.23 81.9679C1008.58 81.9679 1007.12 81.6165 1005.83 80.9137C1004.57 80.2108 1003.57 79.2068 1002.85 77.9015C1002.15 76.5963 1001.8 75.0701 1001.8 73.3231ZM1020.03 73.293C1020.03 71.566 1020.35 70.0499 1021 68.7447C1021.66 67.4394 1022.55 66.4354 1023.68 65.7326C1024.8 65.0297 1026.06 64.6783 1027.44 64.6783C1028.63 64.6783 1029.66 64.9193 1030.55 65.4012C1031.45 65.8832 1032.14 66.5157 1032.62 67.2989V64.9193H1037.77V81.7269H1032.62V79.3474C1032.12 80.1305 1031.42 80.763 1030.52 81.245C1029.63 81.7269 1028.6 81.9679 1027.41 81.9679C1026.05 81.9679 1024.8 81.6165 1023.68 80.9137C1022.55 80.1907 1021.66 79.1767 1021 77.8714C1020.35 76.5461 1020.03 75.0199 1020.03 73.293ZM1032.62 73.3231C1032.62 72.0379 1032.26 71.0239 1031.54 70.2809C1030.84 69.5379 1029.97 69.1664 1028.95 69.1664C1027.92 69.1664 1027.05 69.5379 1026.33 70.2809C1025.63 71.0038 1025.27 72.0078 1025.27 73.293C1025.27 74.5782 1025.63 75.6023 1026.33 76.3654C1027.05 77.1083 1027.92 77.4798 1028.95 77.4798C1029.97 77.4798 1030.84 77.1083 1031.54 76.3654C1032.26 75.6224 1032.62 74.6083 1032.62 73.3231ZM1040.48 73.293C1040.48 71.566 1040.8 70.0499 1041.44 68.7447C1042.1 67.4394 1043 66.4354 1044.12 65.7326C1045.25 65.0297 1046.5 64.6783 1047.89 64.6783C1048.99 64.6783 1050 64.9093 1050.9 65.3711C1051.82 65.833 1052.55 66.4555 1053.07 67.2386V59.4372H1058.22V81.7269H1053.07V79.3172C1052.59 80.1205 1051.89 80.763 1050.99 81.245C1050.11 81.7269 1049.07 81.9679 1047.89 81.9679C1046.5 81.9679 1045.25 81.6165 1044.12 80.9137C1043 80.1907 1042.1 79.1767 1041.44 77.8714C1040.8 76.5461 1040.48 75.0199 1040.48 73.293ZM1053.07 73.3231C1053.07 72.0379 1052.71 71.0239 1051.98 70.2809C1051.28 69.5379 1050.42 69.1664 1049.39 69.1664C1048.37 69.1664 1047.49 69.5379 1046.77 70.2809C1046.07 71.0038 1045.72 72.0078 1045.72 73.293C1045.72 74.5782 1046.07 75.6023 1046.77 76.3654C1047.49 77.1083 1048.37 77.4798 1049.39 77.4798C1050.42 77.4798 1051.28 77.1083 1051.98 76.3654C1052.71 75.6224 1053.07 74.6083 1053.07 73.3231ZM1077.79 73.052C1077.79 73.534 1077.76 74.036 1077.7 74.5581H1066.04C1066.12 75.6023 1066.45 76.4055 1067.03 76.9678C1067.64 77.51 1068.37 77.781 1069.23 77.781C1070.52 77.781 1071.41 77.2389 1071.91 76.1545H1077.4C1077.12 77.2589 1076.6 78.2529 1075.86 79.1365C1075.14 80.0201 1074.22 80.7128 1073.12 81.2149C1072.01 81.7169 1070.78 81.9679 1069.41 81.9679C1067.77 81.9679 1066.3 81.6165 1065.02 80.9137C1063.73 80.2108 1062.73 79.2068 1062 77.9015C1061.28 76.5963 1060.92 75.0701 1060.92 73.3231C1060.92 71.5761 1061.27 70.0499 1061.97 68.7447C1062.7 67.4394 1063.7 66.4354 1064.99 65.7326C1066.27 65.0297 1067.75 64.6783 1069.41 64.6783C1071.04 64.6783 1072.49 65.0197 1073.75 65.7024C1075.02 66.3852 1076 67.3591 1076.7 68.6242C1077.43 69.8893 1077.79 71.3652 1077.79 73.052ZM1072.52 71.6966C1072.52 70.813 1072.22 70.1102 1071.61 69.5881C1071.01 69.066 1070.26 68.8049 1069.35 68.8049C1068.49 68.8049 1067.76 69.0559 1067.16 69.558C1066.57 70.06 1066.21 70.7728 1066.07 71.6966H1072.52ZM1101.95 64.7386C1104.04 64.7386 1105.7 65.3711 1106.92 66.6362C1108.17 67.9013 1108.79 69.6584 1108.79 71.9074V81.7269H1103.67V72.6002C1103.67 71.5158 1103.38 70.6825 1102.8 70.1001C1102.23 69.4977 1101.45 69.1965 1100.45 69.1965C1099.44 69.1965 1098.65 69.4977 1098.07 70.1001C1097.5 70.6825 1097.22 71.5158 1097.22 72.6002V81.7269H1092.1V72.6002C1092.1 71.5158 1091.81 70.6825 1091.23 70.1001C1090.67 69.4977 1089.88 69.1965 1088.88 69.1965C1087.88 69.1965 1087.08 69.4977 1086.5 70.1001C1085.94 70.6825 1085.66 71.5158 1085.66 72.6002V81.7269H1080.51V64.9193H1085.66V67.0278C1086.18 66.3249 1086.86 65.7727 1087.7 65.3711C1088.55 64.9494 1089.5 64.7386 1090.57 64.7386C1091.83 64.7386 1092.96 65.0097 1093.94 65.5518C1094.94 66.094 1095.73 66.8671 1096.29 67.8712C1096.87 66.9475 1097.66 66.1944 1098.67 65.6121C1099.67 65.0297 1100.77 64.7386 1101.95 64.7386ZM1129.56 64.9193L1119.02 89.7091H1113.48L1117.33 81.1546L1110.49 64.9193H1116.25L1120.13 75.4316L1123.99 64.9193H1129.56Z" fill="#001E9A"/>
<path d="M814.159 97.9158C814.675 98.0078 815.112 98.2793 815.471 98.7303C815.83 99.1813 816.009 99.6921 816.009 100.263C816.009 100.751 815.88 101.192 815.623 101.588C815.374 101.975 815.011 102.283 814.532 102.513C814.054 102.734 813.497 102.844 812.862 102.844H809.024V93.2495H812.682C813.336 93.2495 813.897 93.3599 814.366 93.5808C814.836 93.8017 815.19 94.1008 815.429 94.4782C815.669 94.8463 815.788 95.2605 815.788 95.7207C815.788 96.2729 815.641 96.7331 815.347 97.1012C815.052 97.4694 814.656 97.7409 814.159 97.9158ZM810.598 97.2807H812.544C813.06 97.2807 813.46 97.1657 813.745 96.9356C814.04 96.6963 814.187 96.3557 814.187 95.914C814.187 95.4814 814.04 95.1455 813.745 94.9062C813.46 94.6577 813.06 94.5334 812.544 94.5334H810.598V97.2807ZM812.724 101.56C813.257 101.56 813.676 101.432 813.98 101.174C814.284 100.916 814.435 100.557 814.435 100.097C814.435 99.6277 814.274 99.2549 813.952 98.9788C813.63 98.7027 813.202 98.5646 812.668 98.5646H810.598V101.56H812.724ZM822.703 102.844L820.494 99.0064H819.293V102.844H817.72V93.2495H821.033C821.769 93.2495 822.39 93.3783 822.897 93.6361C823.412 93.8938 823.794 94.2389 824.043 94.6715C824.3 95.104 824.429 95.5872 824.429 96.1211C824.429 96.7469 824.245 97.3175 823.877 97.8329C823.518 98.3391 822.961 98.6843 822.206 98.8684L824.581 102.844H822.703ZM819.293 97.7501H821.033C821.622 97.7501 822.064 97.6029 822.358 97.3083C822.662 97.0138 822.814 96.6181 822.814 96.1211C822.814 95.6241 822.667 95.2375 822.372 94.9614C822.078 94.6761 821.631 94.5334 821.033 94.5334H819.293V97.7501ZM828.016 93.2495V102.844H826.442V93.2495H828.016ZM833.216 93.2495C834.238 93.2495 835.131 93.4474 835.895 93.8431C836.668 94.2297 837.261 94.7911 837.676 95.5274C838.099 96.2545 838.311 97.1059 838.311 98.0814C838.311 99.057 838.099 99.9038 837.676 100.622C837.261 101.34 836.668 101.892 835.895 102.278C835.131 102.656 834.238 102.844 833.216 102.844H830.083V93.2495H833.216ZM833.216 101.56C834.339 101.56 835.2 101.257 835.798 100.649C836.396 100.042 836.695 99.1859 836.695 98.0814C836.695 96.9678 836.396 96.098 835.798 95.4722C835.2 94.8463 834.339 94.5334 833.216 94.5334H831.656V101.56H833.216ZM846.815 96.0106C846.566 95.532 846.221 95.1731 845.779 94.9338C845.337 94.6853 844.827 94.561 844.247 94.561C843.612 94.561 843.046 94.7037 842.549 94.989C842.052 95.2743 841.661 95.6793 841.375 96.2039C841.099 96.7285 840.961 97.3359 840.961 98.0262C840.961 98.7165 841.099 99.3285 841.375 99.8624C841.661 100.387 842.052 100.792 842.549 101.077C843.046 101.363 843.612 101.505 844.247 101.505C845.103 101.505 845.798 101.266 846.331 100.787C846.865 100.309 847.192 99.6599 847.312 98.8407H843.708V97.5844H848.996V98.8131C848.895 99.5586 848.628 100.244 848.195 100.87C847.772 101.496 847.215 101.998 846.525 102.375C845.844 102.743 845.084 102.927 844.247 102.927C843.345 102.927 842.521 102.72 841.776 102.306C841.03 101.883 840.437 101.298 839.995 100.553C839.562 99.8071 839.346 98.965 839.346 98.0262C839.346 97.0874 839.562 96.2453 839.995 95.4998C840.437 94.7543 841.03 94.1745 841.776 93.7603C842.53 93.3369 843.354 93.1252 844.247 93.1252C845.268 93.1252 846.175 93.3783 846.967 93.8846C847.767 94.3816 848.347 95.0902 848.706 96.0106H846.815ZM852.122 93.2495V102.844H850.548V93.2495H852.122ZM862.071 102.844H860.497L855.762 95.6793V102.844H854.188V93.2357H855.762L860.497 100.387V93.2357H862.071V102.844ZM871.082 96.0106C870.834 95.532 870.489 95.1731 870.047 94.9338C869.605 94.6853 869.094 94.561 868.514 94.561C867.879 94.561 867.313 94.7037 866.816 94.989C866.319 95.2743 865.928 95.6793 865.643 96.2039C865.367 96.7285 865.229 97.3359 865.229 98.0262C865.229 98.7165 865.367 99.3285 865.643 99.8624C865.928 100.387 866.319 100.792 866.816 101.077C867.313 101.363 867.879 101.505 868.514 101.505C869.37 101.505 870.065 101.266 870.599 100.787C871.133 100.309 871.46 99.6599 871.579 98.8407H867.976V97.5844H873.264V98.8131C873.162 99.5586 872.895 100.244 872.463 100.87C872.039 101.496 871.483 101.998 870.792 102.375C870.111 102.743 869.352 102.927 868.514 102.927C867.612 102.927 866.789 102.72 866.043 102.306C865.298 101.883 864.704 101.298 864.262 100.553C863.83 99.8071 863.613 98.965 863.613 98.0262C863.613 97.0874 863.83 96.2453 864.262 95.4998C864.704 94.7543 865.298 94.1745 866.043 93.7603C866.798 93.3369 867.622 93.1252 868.514 93.1252C869.536 93.1252 870.443 93.3783 871.234 93.8846C872.035 94.3816 872.615 95.0902 872.974 96.0106H871.082ZM884.601 93.2495V94.5334H882.047V102.844H880.473V94.5334H877.905V93.2495H884.601ZM893.857 93.2495V102.844H892.283V98.6475H887.768V102.844H886.195V93.2495H887.768V97.3636H892.283V93.2495H893.857ZM897.502 94.5196V97.3359H900.816V98.6199H897.502V101.56H901.23V102.844H895.929V93.2357H901.23V94.5196H897.502ZM913.699 96.0106C913.45 95.532 913.105 95.1731 912.663 94.9338C912.222 94.6853 911.711 94.561 911.131 94.561C910.496 94.561 909.93 94.7037 909.433 94.989C908.936 95.2743 908.545 95.6793 908.259 96.2039C907.983 96.7285 907.845 97.3359 907.845 98.0262C907.845 98.7165 907.983 99.3285 908.259 99.8624C908.545 100.387 908.936 100.792 909.433 101.077C909.93 101.363 910.496 101.505 911.131 101.505C911.987 101.505 912.682 101.266 913.216 100.787C913.749 100.309 914.076 99.6599 914.196 98.8407H910.593V97.5844H915.88V98.8131C915.779 99.5586 915.512 100.244 915.079 100.87C914.656 101.496 914.099 101.998 913.409 102.375C912.728 102.743 911.969 102.927 911.131 102.927C910.229 102.927 909.405 102.72 908.66 102.306C907.914 101.883 907.321 101.298 906.879 100.553C906.446 99.8071 906.23 98.965 906.23 98.0262C906.23 97.0874 906.446 96.2453 906.879 95.4998C907.321 94.7543 907.914 94.1745 908.66 93.7603C909.415 93.3369 910.238 93.1252 911.131 93.1252C912.153 93.1252 913.059 93.3783 913.851 93.8846C914.651 94.3816 915.231 95.0902 915.59 96.0106H913.699ZM923.217 100.884H919.199L918.509 102.844H916.866L920.304 93.2357H922.126L925.564 102.844H923.907L923.217 100.884ZM922.775 99.6001L921.215 95.1409L919.641 99.6001H922.775ZM933.768 96.1072C933.768 96.595 933.653 97.0552 933.423 97.4878C933.193 97.9204 932.825 98.2747 932.318 98.5508C931.812 98.8177 931.163 98.9512 930.372 98.9512H928.632V102.844H927.059V93.2495H930.372C931.108 93.2495 931.729 93.3783 932.236 93.6361C932.751 93.8846 933.133 94.2251 933.381 94.6577C933.639 95.0902 933.768 95.5734 933.768 96.1072ZM930.372 97.6673C930.97 97.6673 931.416 97.5338 931.711 97.2669C932.006 96.9908 932.153 96.6042 932.153 96.1072C932.153 95.058 931.559 94.5334 930.372 94.5334H928.632V97.6673H930.372ZM943.991 97.9158C944.506 98.0078 944.944 98.2793 945.302 98.7303C945.661 99.1813 945.841 99.6921 945.841 100.263C945.841 100.751 945.712 101.192 945.454 101.588C945.206 101.975 944.842 102.283 944.364 102.513C943.885 102.734 943.328 102.844 942.693 102.844H938.855V93.2495H942.514C943.167 93.2495 943.729 93.3599 944.198 93.5808C944.667 93.8017 945.022 94.1008 945.261 94.4782C945.5 94.8463 945.62 95.2605 945.62 95.7207C945.62 96.2729 945.473 96.7331 945.178 97.1012C944.884 97.4694 944.488 97.7409 943.991 97.9158ZM940.429 97.2807H942.376C942.891 97.2807 943.291 97.1657 943.577 96.9356C943.871 96.6963 944.019 96.3557 944.019 95.914C944.019 95.4814 943.871 95.1455 943.577 94.9062C943.291 94.6577 942.891 94.5334 942.376 94.5334H940.429V97.2807ZM942.555 101.56C943.089 101.56 943.508 101.432 943.811 101.174C944.115 100.916 944.267 100.557 944.267 100.097C944.267 99.6277 944.106 99.2549 943.784 98.9788C943.462 98.7027 943.034 98.5646 942.5 98.5646H940.429V101.56H942.555ZM949.125 94.5196V97.3359H952.438V98.6199H949.125V101.56H952.852V102.844H947.551V93.2357H952.852V94.5196H949.125ZM960.99 93.2495V94.5334H958.436V102.844H956.862V94.5334H954.294V93.2495H960.99ZM975.078 93.2495L972.234 102.844H970.453L968.437 95.5826L966.297 102.844L964.53 102.858L961.81 93.2495H963.481L965.469 101.063L967.623 93.2495H969.39L971.391 101.022L973.393 93.2495H975.078ZM977.949 94.5196V97.3359H981.263V98.6199H977.949V101.56H981.677V102.844H976.376V93.2357H981.677V94.5196H977.949ZM985.189 94.5196V97.3359H988.503V98.6199H985.189V101.56H988.917V102.844H983.615V93.2357H988.917V94.5196H985.189ZM998.738 102.844H997.164L992.429 95.6793V102.844H990.855V93.2357H992.429L997.164 100.387V93.2357H998.738V102.844ZM1010.04 93.2495V94.5334H1005.97V97.3636H1009.14V98.6475H1005.97V102.844H1004.39V93.2495H1010.04ZM1017.28 100.884H1013.26L1012.57 102.844H1010.93L1014.37 93.2357H1016.19L1019.63 102.844H1017.97L1017.28 100.884ZM1016.84 99.6001L1015.28 95.1409L1013.71 99.6001H1016.84ZM1022.7 93.2495V102.844H1021.12V93.2495H1022.7ZM1030.96 93.2495V94.5334H1028.41V102.844H1026.83V94.5334H1024.27V93.2495H1030.96ZM1040.22 93.2495V102.844H1038.64V98.6475H1034.13V102.844H1032.56V93.2495H1034.13V97.3636H1038.64V93.2495H1040.22ZM1051.66 100.884H1047.64L1046.95 102.844H1045.31L1048.75 93.2357H1050.57L1054.01 102.844H1052.35L1051.66 100.884ZM1051.22 99.6001L1049.66 95.1409L1048.08 99.6001H1051.22ZM1063.38 102.844H1061.81L1057.08 95.6793V102.844H1055.5V93.2357H1057.08L1061.81 100.387V93.2357H1063.38V102.844ZM1068.58 93.2495C1069.61 93.2495 1070.5 93.4474 1071.26 93.8431C1072.04 94.2297 1072.63 94.7911 1073.04 95.5274C1073.47 96.2545 1073.68 97.1059 1073.68 98.0814C1073.68 99.057 1073.47 99.9038 1073.04 100.622C1072.63 101.34 1072.04 101.892 1071.26 102.278C1070.5 102.656 1069.61 102.844 1068.58 102.844H1065.45V93.2495H1068.58ZM1068.58 101.56C1069.71 101.56 1070.57 101.257 1071.17 100.649C1071.76 100.042 1072.06 99.1859 1072.06 98.0814C1072.06 96.9678 1071.76 96.098 1071.17 95.4722C1070.57 94.8463 1069.71 94.5334 1068.58 94.5334H1067.02V101.56H1068.58ZM1084.47 93.2495V94.5334H1080.4V97.3636H1083.57V98.6475H1080.4V102.844H1078.83V93.2495H1084.47ZM1087.49 93.2495V99.3654C1087.49 100.092 1087.68 100.64 1088.06 101.008C1088.44 101.376 1088.98 101.56 1089.66 101.56C1090.35 101.56 1090.88 101.376 1091.26 101.008C1091.65 100.64 1091.84 100.092 1091.84 99.3654V93.2495H1093.41V99.3377C1093.41 100.12 1093.24 100.783 1092.9 101.326C1092.56 101.869 1092.11 102.274 1091.54 102.541C1090.96 102.808 1090.33 102.941 1089.64 102.941C1088.95 102.941 1088.32 102.808 1087.75 102.541C1087.19 102.274 1086.74 101.869 1086.41 101.326C1086.08 100.783 1085.92 100.12 1085.92 99.3377V93.2495H1087.49ZM1101.66 93.2495V94.5334H1099.11V102.844H1097.53V94.5334H1094.97V93.2495H1101.66ZM1104.81 93.2495V99.3654C1104.81 100.092 1105 100.64 1105.38 101.008C1105.77 101.376 1106.3 101.56 1106.98 101.56C1107.67 101.56 1108.21 101.376 1108.58 101.008C1108.97 100.64 1109.16 100.092 1109.16 99.3654V93.2495H1110.74V99.3377C1110.74 100.12 1110.57 100.783 1110.23 101.326C1109.89 101.869 1109.43 102.274 1108.86 102.541C1108.29 102.808 1107.66 102.941 1106.97 102.941C1106.28 102.941 1105.65 102.808 1105.08 102.541C1104.52 102.274 1104.07 101.869 1103.74 101.326C1103.41 100.783 1103.24 100.12 1103.24 99.3377V93.2495H1104.81ZM1117.77 102.844L1115.56 99.0064H1114.36V102.844H1112.79V93.2495H1116.1C1116.84 93.2495 1117.46 93.3783 1117.96 93.6361C1118.48 93.8938 1118.86 94.2389 1119.11 94.6715C1119.37 95.104 1119.5 95.5872 1119.5 96.1211C1119.5 96.7469 1119.31 97.3175 1118.94 97.8329C1118.58 98.3391 1118.03 98.6843 1117.27 98.8684L1119.65 102.844H1117.77ZM1114.36 97.7501H1116.1C1116.69 97.7501 1117.13 97.6029 1117.43 97.3083C1117.73 97.0138 1117.88 96.6181 1117.88 96.1211C1117.88 95.6241 1117.73 95.2375 1117.44 94.9614C1117.14 94.6761 1116.7 94.5334 1116.1 94.5334H1114.36V97.7501ZM1123.08 94.5196V97.3359H1126.4V98.6199H1123.08V101.56H1126.81V102.844H1121.51V93.2357H1126.81V94.5196H1123.08Z" fill="#FF7900"/>
<rect width="699.317" height="914.817" transform="translate(141.385 -541.032) rotate(26.9017)" fill="#001E9A"/>
<rect width="4.98493" height="23.4675" transform="translate(78.4944 69.204)" fill="white"/>
<rect width="10.43" height="5.21501" transform="translate(72.512 69.2039)" fill="white"/>
<rect width="5.21501" height="5.21501" transform="translate(84.2458 69.2039)" fill="white"/>
<path fill-rule="evenodd" clip-rule="evenodd" d="M83.4933 100.265C95.2498 100.265 104.78 90.7374 104.78 78.9847C104.78 67.2319 95.2498 57.7045 83.4933 57.7045C72.7825 57.7045 63.9193 65.6123 62.4272 75.9063C64.4847 67.4322 72.1242 61.1398 81.2339 61.1398C91.9217 61.1398 100.586 69.8011 100.586 80.4854C100.586 91.1697 91.9217 99.831 81.2339 99.831C80.1767 99.831 79.1393 99.7463 78.1281 99.5832C79.8421 100.028 81.64 100.265 83.4933 100.265Z" fill="white"/>
<path fill-rule="evenodd" clip-rule="evenodd" d="M92.094 103.752C79.124 109.873 63.6461 104.324 57.5232 91.3586C51.4003 78.3927 56.9511 62.9199 69.9211 56.799C80.3068 51.8978 92.3004 54.4791 99.8114 62.3593C92.9662 55.4505 82.2516 53.2422 72.9544 57.6297C61.1635 63.1942 56.1174 77.2604 61.6836 89.0475C67.2499 100.835 81.3207 105.879 93.1116 100.315C104.329 95.0207 109.442 82.0317 105.12 70.6311C110.197 83.2827 104.588 97.8563 92.094 103.752Z" fill="white"/>
<path d="M139.518 60.5818V64.7084H133.915V81.7269H128.764V64.7084H123.162V60.5818H139.518ZM157.946 73.052C157.946 73.534 157.916 74.036 157.856 74.5581H146.199C146.28 75.6023 146.611 76.4055 147.193 76.9678C147.796 77.51 148.529 77.781 149.392 77.781C150.677 77.781 151.571 77.2389 152.073 76.1545H157.555C157.274 77.2589 156.762 78.2529 156.019 79.1365C155.296 80.0201 154.382 80.7128 153.278 81.2149C152.173 81.7169 150.938 81.9679 149.573 81.9679C147.926 81.9679 146.46 81.6165 145.175 80.9137C143.89 80.2108 142.886 79.2068 142.163 77.9015C141.44 76.5963 141.079 75.0701 141.079 73.3231C141.079 71.5761 141.43 70.0499 142.133 68.7447C142.856 67.4394 143.86 66.4354 145.145 65.7326C146.43 65.0297 147.906 64.6783 149.573 64.6783C151.199 64.6783 152.645 65.0197 153.91 65.7024C155.175 66.3852 156.159 67.3591 156.862 68.6242C157.585 69.8893 157.946 71.3652 157.946 73.052ZM152.675 71.6966C152.675 70.813 152.374 70.1102 151.772 69.5881C151.169 69.066 150.416 68.8049 149.513 68.8049C148.649 68.8049 147.916 69.0559 147.314 69.558C146.731 70.06 146.37 70.7728 146.229 71.6966H152.675ZM159.64 73.3231C159.64 71.5761 159.991 70.0499 160.694 68.7447C161.417 67.4394 162.411 66.4354 163.676 65.7326C164.961 65.0297 166.427 64.6783 168.074 64.6783C170.182 64.6783 171.939 65.2305 173.345 66.335C174.77 67.4394 175.704 68.9957 176.146 71.0038H170.664C170.202 69.7186 169.309 69.076 167.983 69.076C167.039 69.076 166.286 69.4475 165.724 70.1905C165.162 70.9134 164.881 71.9576 164.881 73.3231C164.881 74.6886 165.162 75.7428 165.724 76.4858C166.286 77.2087 167.039 77.5702 167.983 77.5702C169.309 77.5702 170.202 76.9276 170.664 75.6424H176.146C175.704 77.6104 174.77 79.1566 173.345 80.2811C171.919 81.4056 170.162 81.9679 168.074 81.9679C166.427 81.9679 164.961 81.6165 163.676 80.9137C162.411 80.2108 161.417 79.2068 160.694 77.9015C159.991 76.5963 159.64 75.0701 159.64 73.3231ZM189.233 64.7386C191.161 64.7386 192.707 65.3812 193.871 66.6663C195.036 67.9314 195.618 69.6784 195.618 71.9074V81.7269H190.498V72.6002C190.498 71.4757 190.207 70.6022 189.624 69.9797C189.042 69.3572 188.259 69.0459 187.275 69.0459C186.291 69.0459 185.508 69.3572 184.925 69.9797C184.343 70.6022 184.052 71.4757 184.052 72.6002V81.7269H178.901V59.4372H184.052V67.1784C184.574 66.4354 185.287 65.843 186.191 65.4012C187.094 64.9595 188.108 64.7386 189.233 64.7386ZM215.041 73.052C215.041 73.534 215.011 74.036 214.951 74.5581H203.294C203.375 75.6023 203.706 76.4055 204.288 76.9678C204.891 77.51 205.624 77.781 206.487 77.781C207.772 77.781 208.666 77.2389 209.168 76.1545H214.65C214.369 77.2589 213.857 78.2529 213.114 79.1365C212.391 80.0201 211.477 80.7128 210.373 81.2149C209.268 81.7169 208.033 81.9679 206.668 81.9679C205.021 81.9679 203.555 81.6165 202.27 80.9137C200.985 80.2108 199.981 79.2068 199.258 77.9015C198.535 76.5963 198.174 75.0701 198.174 73.3231C198.174 71.5761 198.525 70.0499 199.228 68.7447C199.951 67.4394 200.955 66.4354 202.24 65.7326C203.525 65.0297 205.001 64.6783 206.668 64.6783C208.294 64.6783 209.74 65.0197 211.005 65.7024C212.27 66.3852 213.254 67.3591 213.957 68.6242C214.68 69.8893 215.041 71.3652 215.041 73.052ZM209.77 71.6966C209.77 70.813 209.469 70.1102 208.867 69.5881C208.264 69.066 207.511 68.8049 206.608 68.8049C205.744 68.8049 205.011 69.0559 204.409 69.558C203.826 70.06 203.465 70.7728 203.324 71.6966H209.77ZM233.602 73.052C233.602 73.534 233.572 74.036 233.512 74.5581H221.855C221.936 75.6023 222.267 76.4055 222.849 76.9678C223.452 77.51 224.185 77.781 225.048 77.781C226.333 77.781 227.227 77.2389 227.729 76.1545H233.211C232.93 77.2589 232.418 78.2529 231.675 79.1365C230.952 80.0201 230.038 80.7128 228.934 81.2149C227.829 81.7169 226.594 81.9679 225.229 81.9679C223.582 81.9679 222.116 81.6165 220.831 80.9137C219.546 80.2108 218.542 79.2068 217.819 77.9015C217.096 76.5963 216.735 75.0701 216.735 73.3231C216.735 71.5761 217.086 70.0499 217.789 68.7447C218.512 67.4394 219.516 66.4354 220.801 65.7326C222.086 65.0297 223.562 64.6783 225.229 64.6783C226.855 64.6783 228.301 65.0197 229.566 65.7024C230.831 66.3852 231.815 67.3591 232.518 68.6242C233.241 69.8893 233.602 71.3652 233.602 73.052ZM228.331 71.6966C228.331 70.813 228.03 70.1102 227.428 69.5881C226.825 69.066 226.072 68.8049 225.169 68.8049C224.305 68.8049 223.572 69.0559 222.97 69.558C222.387 70.06 222.026 70.7728 221.885 71.6966H228.331ZM241.47 67.7206C242.073 66.7968 242.826 66.0739 243.73 65.5518C244.633 65.0097 245.637 64.7386 246.742 64.7386V70.1905H245.326C244.041 70.1905 243.077 70.4716 242.434 71.0339C241.792 71.5761 241.47 72.54 241.47 73.9255V81.7269H236.32V64.9193H241.47V67.7206ZM256.854 81.9679C255.208 81.9679 253.722 81.6165 252.396 80.9137C251.091 80.2108 250.057 79.2068 249.294 77.9015C248.551 76.5963 248.179 75.0701 248.179 73.3231C248.179 71.5962 248.561 70.0801 249.324 68.7748C250.087 67.4495 251.131 66.4354 252.457 65.7326C253.782 65.0297 255.268 64.6783 256.915 64.6783C258.561 64.6783 260.047 65.0297 261.373 65.7326C262.698 66.4354 263.742 67.4495 264.505 68.7748C265.268 70.0801 265.65 71.5962 265.65 73.3231C265.65 75.0501 265.258 76.5762 264.475 77.9015C263.712 79.2068 262.658 80.2108 261.312 80.9137C259.987 81.6165 258.501 81.9679 256.854 81.9679ZM256.854 77.51C257.838 77.51 258.672 77.1485 259.354 76.4256C260.057 75.7027 260.409 74.6685 260.409 73.3231C260.409 71.9777 260.067 70.9435 259.385 70.2206C258.722 69.4977 257.899 69.1363 256.915 69.1363C255.911 69.1363 255.077 69.4977 254.415 70.2206C253.752 70.9235 253.421 71.9576 253.421 73.3231C253.421 74.6685 253.742 75.7027 254.384 76.4256C255.047 77.1485 255.87 77.51 256.854 77.51ZM278.714 64.7386C280.642 64.7386 282.188 65.3812 283.353 66.6663C284.517 67.9314 285.1 69.6784 285.1 71.9074V81.7269H279.979V72.6002C279.979 71.4757 279.688 70.6022 279.106 69.9797C278.523 69.3572 277.74 69.0459 276.756 69.0459C275.772 69.0459 274.989 69.3572 274.407 69.9797C273.824 70.6022 273.533 71.4757 273.533 72.6002V81.7269H268.382V59.4372H273.533V67.1784C274.055 66.4354 274.768 65.843 275.672 65.4012C276.575 64.9595 277.589 64.7386 278.714 64.7386ZM308.225 77.9919H300.333L299.068 81.7269H293.676L301.327 60.5818H307.291L314.942 81.7269H309.49L308.225 77.9919ZM306.9 74.0159L304.279 66.2747L301.689 74.0159H306.9ZM316.246 73.3231C316.246 71.5761 316.598 70.0499 317.301 68.7447C318.024 67.4394 319.018 66.4354 320.283 65.7326C321.568 65.0297 323.034 64.6783 324.68 64.6783C326.789 64.6783 328.546 65.2305 329.952 66.335C331.377 67.4394 332.311 68.9957 332.753 71.0038H327.271C326.809 69.7186 325.915 69.076 324.59 69.076C323.646 69.076 322.893 69.4475 322.331 70.1905C321.769 70.9134 321.487 71.9576 321.487 73.3231C321.487 74.6886 321.769 75.7428 322.331 76.4858C322.893 77.2087 323.646 77.5702 324.59 77.5702C325.915 77.5702 326.809 76.9276 327.271 75.6424H332.753C332.311 77.6104 331.377 79.1566 329.952 80.2811C328.526 81.4056 326.769 81.9679 324.68 81.9679C323.034 81.9679 321.568 81.6165 320.283 80.9137C319.018 80.2108 318.024 79.2068 317.301 77.9015C316.598 76.5963 316.246 75.0701 316.246 73.3231ZM334.484 73.293C334.484 71.566 334.805 70.0499 335.448 68.7447C336.11 67.4394 337.004 66.4354 338.128 65.7326C339.253 65.0297 340.508 64.6783 341.894 64.6783C343.078 64.6783 344.113 64.9193 344.996 65.4012C345.9 65.8832 346.593 66.5157 347.074 67.2989V64.9193H352.225V81.7269H347.074V79.3474C346.572 80.1305 345.87 80.763 344.966 81.245C344.082 81.7269 343.048 81.9679 341.864 81.9679C340.498 81.9679 339.253 81.6165 338.128 80.9137C337.004 80.1907 336.11 79.1767 335.448 77.8714C334.805 76.5461 334.484 75.0199 334.484 73.293ZM347.074 73.3231C347.074 72.0379 346.713 71.0239 345.99 70.2809C345.287 69.5379 344.424 69.1664 343.4 69.1664C342.376 69.1664 341.502 69.5379 340.779 70.2809C340.076 71.0038 339.725 72.0078 339.725 73.293C339.725 74.5782 340.076 75.6023 340.779 76.3654C341.502 77.1083 342.376 77.4798 343.4 77.4798C344.424 77.4798 345.287 77.1083 345.99 76.3654C346.713 75.6224 347.074 74.6083 347.074 73.3231ZM354.927 73.293C354.927 71.566 355.249 70.0499 355.891 68.7447C356.554 67.4394 357.448 66.4354 358.572 65.7326C359.697 65.0297 360.952 64.6783 362.337 64.6783C363.442 64.6783 364.446 64.9093 365.349 65.3711C366.273 65.833 366.996 66.4555 367.518 67.2386V59.4372H372.669V81.7269H367.518V79.3172C367.036 80.1205 366.343 80.763 365.44 81.245C364.556 81.7269 363.522 81.9679 362.337 81.9679C360.952 81.9679 359.697 81.6165 358.572 80.9137C357.448 80.1907 356.554 79.1767 355.891 77.8714C355.249 76.5461 354.927 75.0199 354.927 73.293ZM367.518 73.3231C367.518 72.0379 367.157 71.0239 366.434 70.2809C365.731 69.5379 364.867 69.1664 363.843 69.1664C362.819 69.1664 361.946 69.5379 361.223 70.2809C360.52 71.0038 360.169 72.0078 360.169 73.293C360.169 74.5782 360.52 75.6023 361.223 76.3654C361.946 77.1083 362.819 77.4798 363.843 77.4798C364.867 77.4798 365.731 77.1083 366.434 76.3654C367.157 75.6224 367.518 74.6083 367.518 73.3231ZM392.239 73.052C392.239 73.534 392.209 74.036 392.149 74.5581H380.492C380.572 75.6023 380.903 76.4055 381.486 76.9678C382.088 77.51 382.821 77.781 383.684 77.781C384.97 77.781 385.863 77.2389 386.365 76.1545H391.847C391.566 77.2589 391.054 78.2529 390.311 79.1365C389.588 80.0201 388.675 80.7128 387.57 81.2149C386.466 81.7169 385.231 81.9679 383.865 81.9679C382.219 81.9679 380.753 81.6165 379.467 80.9137C378.182 80.2108 377.178 79.2068 376.455 77.9015C375.732 76.5963 375.371 75.0701 375.371 73.3231C375.371 71.5761 375.722 70.0499 376.425 68.7447C377.148 67.4394 378.152 66.4354 379.437 65.7326C380.723 65.0297 382.198 64.6783 383.865 64.6783C385.492 64.6783 386.938 65.0197 388.203 65.7024C389.468 66.3852 390.452 67.3591 391.155 68.6242C391.877 69.8893 392.239 71.3652 392.239 73.052ZM386.968 71.6966C386.968 70.813 386.666 70.1102 386.064 69.5881C385.462 69.066 384.709 68.8049 383.805 68.8049C382.941 68.8049 382.209 69.0559 381.606 69.558C381.024 70.06 380.662 70.7728 380.522 71.6966H386.968ZM416.402 64.7386C418.491 64.7386 420.148 65.3711 421.372 66.6362C422.617 67.9013 423.24 69.6584 423.24 71.9074V81.7269H418.119V72.6002C418.119 71.5158 417.828 70.6825 417.246 70.1001C416.684 69.4977 415.9 69.1965 414.896 69.1965C413.892 69.1965 413.099 69.4977 412.517 70.1001C411.955 70.6825 411.673 71.5158 411.673 72.6002V81.7269H406.553V72.6002C406.553 71.5158 406.262 70.6825 405.679 70.1001C405.117 69.4977 404.334 69.1965 403.33 69.1965C402.326 69.1965 401.533 69.4977 400.95 70.1001C400.388 70.6825 400.107 71.5158 400.107 72.6002V81.7269H394.956V64.9193H400.107V67.0278C400.629 66.3249 401.312 65.7727 402.155 65.3711C402.999 64.9494 403.952 64.7386 405.017 64.7386C406.282 64.7386 407.406 65.0097 408.39 65.5518C409.394 66.094 410.177 66.8671 410.74 67.8712C411.322 66.9475 412.115 66.1944 413.119 65.6121C414.123 65.0297 415.218 64.7386 416.402 64.7386ZM444.011 64.9193L433.469 89.7091H427.927L431.782 81.1546L424.945 64.9193H430.698L434.583 75.4316L438.439 64.9193H444.011Z" fill="white"/>
<path d="M128.61 97.9158C129.125 98.0078 129.563 98.2793 129.922 98.7303C130.281 99.1813 130.46 99.6921 130.46 100.263C130.46 100.751 130.331 101.192 130.073 101.588C129.825 101.975 129.461 102.283 128.983 102.513C128.504 102.734 127.947 102.844 127.312 102.844H123.474V93.2495H127.133C127.786 93.2495 128.348 93.3599 128.817 93.5808C129.287 93.8017 129.641 94.1008 129.88 94.4782C130.119 94.8463 130.239 95.2605 130.239 95.7207C130.239 96.2729 130.092 96.7331 129.797 97.1012C129.503 97.4694 129.107 97.7409 128.61 97.9158ZM125.048 97.2807H126.995C127.51 97.2807 127.911 97.1657 128.196 96.9356C128.49 96.6963 128.638 96.3557 128.638 95.914C128.638 95.4814 128.49 95.1455 128.196 94.9062C127.911 94.6577 127.51 94.5334 126.995 94.5334H125.048V97.2807ZM127.174 101.56C127.708 101.56 128.127 101.432 128.431 101.174C128.734 100.916 128.886 100.557 128.886 100.097C128.886 99.6277 128.725 99.2549 128.403 98.9788C128.081 98.7027 127.653 98.5646 127.119 98.5646H125.048V101.56H127.174ZM137.154 102.844L134.945 99.0064H133.744V102.844H132.17V93.2495H135.484C136.22 93.2495 136.841 93.3783 137.347 93.6361C137.863 93.8938 138.245 94.2389 138.493 94.6715C138.751 95.104 138.88 95.5872 138.88 96.1211C138.88 96.7469 138.696 97.3175 138.328 97.8329C137.969 98.3391 137.412 98.6843 136.657 98.8684L139.032 102.844H137.154ZM133.744 97.7501H135.484C136.073 97.7501 136.514 97.6029 136.809 97.3083C137.113 97.0138 137.265 96.6181 137.265 96.1211C137.265 95.6241 137.117 95.2375 136.823 94.9614C136.528 94.6761 136.082 94.5334 135.484 94.5334H133.744V97.7501ZM142.467 93.2495V102.844H140.893V93.2495H142.467ZM147.667 93.2495C148.689 93.2495 149.581 93.4474 150.345 93.8431C151.118 94.2297 151.712 94.7911 152.126 95.5274C152.55 96.2545 152.761 97.1059 152.761 98.0814C152.761 99.057 152.55 99.9038 152.126 100.622C151.712 101.34 151.118 101.892 150.345 102.278C149.581 102.656 148.689 102.844 147.667 102.844H144.533V93.2495H147.667ZM147.667 101.56C148.79 101.56 149.651 101.257 150.249 100.649C150.847 100.042 151.146 99.1859 151.146 98.0814C151.146 96.9678 150.847 96.098 150.249 95.4722C149.651 94.8463 148.79 94.5334 147.667 94.5334H146.107V101.56H147.667ZM161.265 96.0106C161.017 95.532 160.672 95.1731 160.23 94.9338C159.788 94.6853 159.277 94.561 158.698 94.561C158.062 94.561 157.496 94.7037 156.999 94.989C156.502 95.2743 156.111 95.6793 155.826 96.2039C155.55 96.7285 155.412 97.3359 155.412 98.0262C155.412 98.7165 155.55 99.3285 155.826 99.8624C156.111 100.387 156.502 100.792 156.999 101.077C157.496 101.363 158.062 101.505 158.698 101.505C159.553 101.505 160.248 101.266 160.782 100.787C161.316 100.309 161.643 99.6599 161.762 98.8407H158.159V97.5844H163.447V98.8131C163.345 99.5586 163.078 100.244 162.646 100.87C162.223 101.496 161.666 101.998 160.975 102.375C160.294 102.743 159.535 102.927 158.698 102.927C157.796 102.927 156.972 102.72 156.226 102.306C155.481 101.883 154.887 101.298 154.445 100.553C154.013 99.8071 153.797 98.965 153.797 98.0262C153.797 97.0874 154.013 96.2453 154.445 95.4998C154.887 94.7543 155.481 94.1745 156.226 93.7603C156.981 93.3369 157.805 93.1252 158.698 93.1252C159.719 93.1252 160.626 93.3783 161.417 93.8846C162.218 94.3816 162.798 95.0902 163.157 96.0106H161.265ZM166.573 93.2495V102.844H164.999V93.2495H166.573ZM176.522 102.844H174.948L170.213 95.6793V102.844H168.639V93.2357H170.213L174.948 100.387V93.2357H176.522V102.844ZM185.533 96.0106C185.284 95.532 184.939 95.1731 184.498 94.9338C184.056 94.6853 183.545 94.561 182.965 94.561C182.33 94.561 181.764 94.7037 181.267 94.989C180.77 95.2743 180.379 95.6793 180.094 96.2039C179.817 96.7285 179.679 97.3359 179.679 98.0262C179.679 98.7165 179.817 99.3285 180.094 99.8624C180.379 100.387 180.77 100.792 181.267 101.077C181.764 101.363 182.33 101.505 182.965 101.505C183.821 101.505 184.516 101.266 185.05 100.787C185.584 100.309 185.91 99.6599 186.03 98.8407H182.427V97.5844H187.714V98.8131C187.613 99.5586 187.346 100.244 186.914 100.87C186.49 101.496 185.933 101.998 185.243 102.375C184.562 102.743 183.803 102.927 182.965 102.927C182.063 102.927 181.239 102.72 180.494 102.306C179.748 101.883 179.155 101.298 178.713 100.553C178.28 99.8071 178.064 98.965 178.064 98.0262C178.064 97.0874 178.28 96.2453 178.713 95.4998C179.155 94.7543 179.748 94.1745 180.494 93.7603C181.249 93.3369 182.072 93.1252 182.965 93.1252C183.987 93.1252 184.893 93.3783 185.685 93.8846C186.486 94.3816 187.065 95.0902 187.424 96.0106H185.533ZM199.051 93.2495V94.5334H196.497V102.844H194.924V94.5334H192.356V93.2495H199.051ZM208.307 93.2495V102.844H206.734V98.6475H202.219V102.844H200.645V93.2495H202.219V97.3636H206.734V93.2495H208.307ZM211.953 94.5196V97.3359H215.266V98.6199H211.953V101.56H215.681V102.844H210.379V93.2357H215.681V94.5196H211.953ZM228.15 96.0106C227.901 95.532 227.556 95.1731 227.114 94.9338C226.672 94.6853 226.162 94.561 225.582 94.561C224.947 94.561 224.381 94.7037 223.884 94.989C223.387 95.2743 222.995 95.6793 222.71 96.2039C222.434 96.7285 222.296 97.3359 222.296 98.0262C222.296 98.7165 222.434 99.3285 222.71 99.8624C222.995 100.387 223.387 100.792 223.884 101.077C224.381 101.363 224.947 101.505 225.582 101.505C226.438 101.505 227.133 101.266 227.666 100.787C228.2 100.309 228.527 99.6599 228.647 98.8407H225.043V97.5844H230.331V98.8131C230.23 99.5586 229.963 100.244 229.53 100.87C229.107 101.496 228.55 101.998 227.86 102.375C227.179 102.743 226.419 102.927 225.582 102.927C224.68 102.927 223.856 102.72 223.11 102.306C222.365 101.883 221.771 101.298 221.33 100.553C220.897 99.8071 220.681 98.965 220.681 98.0262C220.681 97.0874 220.897 96.2453 221.33 95.4998C221.771 94.7543 222.365 94.1745 223.11 93.7603C223.865 93.3369 224.689 93.1252 225.582 93.1252C226.603 93.1252 227.51 93.3783 228.301 93.8846C229.102 94.3816 229.682 95.0902 230.041 96.0106H228.15ZM237.668 100.884H233.65L232.96 102.844H231.317L234.755 93.2357H236.577L240.015 102.844H238.358L237.668 100.884ZM237.226 99.6001L235.666 95.1409L234.092 99.6001H237.226ZM248.219 96.1072C248.219 96.595 248.104 97.0552 247.874 97.4878C247.643 97.9204 247.275 98.2747 246.769 98.5508C246.263 98.8177 245.614 98.9512 244.823 98.9512H243.083V102.844H241.509V93.2495H244.823C245.559 93.2495 246.18 93.3783 246.686 93.6361C247.202 93.8846 247.584 94.2251 247.832 94.6577C248.09 95.0902 248.219 95.5734 248.219 96.1072ZM244.823 97.6673C245.421 97.6673 245.867 97.5338 246.162 97.2669C246.456 96.9908 246.603 96.6042 246.603 96.1072C246.603 95.058 246.01 94.5334 244.823 94.5334H243.083V97.6673H244.823ZM258.442 97.9158C258.957 98.0078 259.394 98.2793 259.753 98.7303C260.112 99.1813 260.292 99.6921 260.292 100.263C260.292 100.751 260.163 101.192 259.905 101.588C259.656 101.975 259.293 102.283 258.814 102.513C258.336 102.734 257.779 102.844 257.144 102.844H253.306V93.2495H256.964C257.618 93.2495 258.179 93.3599 258.649 93.5808C259.118 93.8017 259.472 94.1008 259.712 94.4782C259.951 94.8463 260.071 95.2605 260.071 95.7207C260.071 96.2729 259.923 96.7331 259.629 97.1012C259.334 97.4694 258.939 97.7409 258.442 97.9158ZM254.88 97.2807H256.826C257.342 97.2807 257.742 97.1657 258.027 96.9356C258.322 96.6963 258.469 96.3557 258.469 95.914C258.469 95.4814 258.322 95.1455 258.027 94.9062C257.742 94.6577 257.342 94.5334 256.826 94.5334H254.88V97.2807ZM257.006 101.56C257.54 101.56 257.958 101.432 258.262 101.174C258.566 100.916 258.718 100.557 258.718 100.097C258.718 99.6277 258.557 99.2549 258.235 98.9788C257.912 98.7027 257.484 98.5646 256.951 98.5646H254.88V101.56H257.006ZM263.576 94.5196V97.3359H266.889V98.6199H263.576V101.56H267.303V102.844H262.002V93.2357H267.303V94.5196H263.576ZM275.44 93.2495V94.5334H272.886V102.844H271.312V94.5334H268.745V93.2495H275.44ZM289.528 93.2495L286.684 102.844H284.903L282.888 95.5826L280.748 102.844L278.981 102.858L276.261 93.2495H277.932L279.92 101.063L282.073 93.2495H283.84L285.842 101.022L287.844 93.2495H289.528ZM292.4 94.5196V97.3359H295.713V98.6199H292.4V101.56H296.128V102.844H290.826V93.2357H296.128V94.5196H292.4ZM299.64 94.5196V97.3359H302.953V98.6199H299.64V101.56H303.367V102.844H298.066V93.2357H303.367V94.5196H299.64ZM313.189 102.844H311.615L306.88 95.6793V102.844H305.306V93.2357H306.88L311.615 100.387V93.2357H313.189V102.844ZM324.488 93.2495V94.5334H320.416V97.3636H323.591V98.6475H320.416V102.844H318.842V93.2495H324.488ZM331.731 100.884H327.714L327.024 102.844H325.381L328.818 93.2357H330.641L334.078 102.844H332.422L331.731 100.884ZM331.29 99.6001L329.73 95.1409L328.156 99.6001H331.29ZM337.147 93.2495V102.844H335.573V93.2495H337.147ZM345.412 93.2495V94.5334H342.858V102.844H341.284V94.5334H338.716V93.2495H345.412ZM354.668 93.2495V102.844H353.094V98.6475H348.58V102.844H347.006V93.2495H348.58V97.3636H353.094V93.2495H354.668ZM366.11 100.884H362.093L361.403 102.844H359.76L363.198 93.2357H365.02L368.457 102.844H366.801L366.11 100.884ZM365.669 99.6001L364.109 95.1409L362.535 99.6001H365.669ZM377.835 102.844H376.261L371.526 95.6793V102.844H369.952V93.2357H371.526L376.261 100.387V93.2357H377.835V102.844ZM383.036 93.2495C384.057 93.2495 384.95 93.4474 385.714 93.8431C386.487 94.2297 387.081 94.7911 387.495 95.5274C387.918 96.2545 388.13 97.1059 388.13 98.0814C388.13 99.057 387.918 99.9038 387.495 100.622C387.081 101.34 386.487 101.892 385.714 102.278C384.95 102.656 384.057 102.844 383.036 102.844H379.902V93.2495H383.036ZM383.036 101.56C384.159 101.56 385.019 101.257 385.617 100.649C386.216 100.042 386.515 99.1859 386.515 98.0814C386.515 96.9678 386.216 96.098 385.617 95.4722C385.019 94.8463 384.159 94.5334 383.036 94.5334H381.476V101.56H383.036ZM398.922 93.2495V94.5334H394.85V97.3636H398.025V98.6475H394.85V102.844H393.276V93.2495H398.922ZM401.941 93.2495V99.3654C401.941 100.092 402.13 100.64 402.507 101.008C402.894 101.376 403.427 101.56 404.108 101.56C404.799 101.56 405.333 101.376 405.71 101.008C406.096 100.64 406.29 100.092 406.29 99.3654V93.2495H407.864V99.3377C407.864 100.12 407.693 100.783 407.353 101.326C407.012 101.869 406.557 102.274 405.986 102.541C405.415 102.808 404.785 102.941 404.095 102.941C403.404 102.941 402.774 102.808 402.203 102.541C401.642 102.274 401.195 101.869 400.864 101.326C400.533 100.783 400.367 100.12 400.367 99.3377V93.2495H401.941ZM416.111 93.2495V94.5334H413.557V102.844H411.984V94.5334H409.416V93.2495H416.111ZM419.265 93.2495V99.3654C419.265 100.092 419.454 100.64 419.831 101.008C420.218 101.376 420.752 101.56 421.433 101.56C422.123 101.56 422.657 101.376 423.034 101.008C423.421 100.64 423.614 100.092 423.614 99.3654V93.2495H425.188V99.3377C425.188 100.12 425.018 100.783 424.677 101.326C424.337 101.869 423.881 102.274 423.31 102.541C422.74 102.808 422.109 102.941 421.419 102.941C420.729 102.941 420.098 102.808 419.528 102.541C418.966 102.274 418.52 101.869 418.189 101.326C417.857 100.783 417.692 100.12 417.692 99.3377V93.2495H419.265ZM432.221 102.844L430.012 99.0064H428.811V102.844H427.237V93.2495H430.55C431.287 93.2495 431.908 93.3783 432.414 93.6361C432.93 93.8938 433.312 94.2389 433.56 94.6715C433.818 95.104 433.947 95.5872 433.947 96.1211C433.947 96.7469 433.763 97.3175 433.394 97.8329C433.035 98.3391 432.479 98.6843 431.724 98.8684L434.098 102.844H432.221ZM428.811 97.7501H430.55C431.139 97.7501 431.581 97.6029 431.876 97.3083C432.179 97.0138 432.331 96.6181 432.331 96.1211C432.331 95.6241 432.184 95.2375 431.89 94.9614C431.595 94.6761 431.149 94.5334 430.55 94.5334H428.811V97.7501ZM437.534 94.5196V97.3359H440.847V98.6199H437.534V101.56H441.261V102.844H435.96V93.2357H441.261V94.5196H437.534Z" fill="white"/>
</g>
<defs>
<clipPath id="clip0_18_11277">
<rect width="1177" height="160" fill="white"/>
</clipPath>
</defs>
</svg>
